<svg xmlns="http://www.w3.org/2000/svg" viewBox="0 0 471.44 118.8"><defs><style>.cls-1{fill:#1d1d1b;}.cls-2{fill:#5db130;}.cls-3{fill:#fff;}</style></defs><g id="Layer_2" data-name="Layer 2"><g id="Layer_1-2" data-name="Layer 1"><path class="cls-1" d="M215.72,27.42H192.35V43.33h15.87l-.12,11H192.35v17h25V82.6H176.63V16.21H215Z"/><path class="cls-1" d="M262.56,82.6H243L223.86,16.21h16.57l12.65,54.13L265,16.21h16.09Z"/><path class="cls-1" d="M310.36,27.61l-13,55H281l20-66.39h19.06l20,66.39H323.49Z"/><polygon class="cls-2" points="83.8 79.83 41.9 118.8 0 79.83 0 15.94 41.9 0 83.8 15.94 83.8 79.83"/><path class="cls-3" d="M31,89.57l6.11-22.08L24.82,53.2,39.66,22.73l23.86,6.71L48,53,59.26,63.49Z"/><path class="cls-1" d="M148.57,47.44c6.13-1.43,12.17-5.84,12.17-14.27,0-12.46-10.92-17-28.74-17H113.22V82.6h21.37c16.67,0,28.93-4.21,28.93-19.35C163.52,52.52,156,48.88,148.57,47.44ZM134.68,71.2h-5.75V27.32h4.6c7.57,0,11.21,1.82,11.21,7.38,0,4.94-2.73,7.45-7.9,7.95V53.22c6.25.24,10.49,2.8,10.49,9.17C147.33,69.67,142.06,71.2,134.68,71.2Z"/><path class="cls-1" d="M385.65,54.34c8.63-3.93,12.75-9.19,12.75-17.91,0-13.8-9.3-20.22-27.31-20.22H349.34V82.6h15.72V27.23h5.65c7.76,0,11.5,2.78,11.5,9.2,0,7-3.65,10-10.54,10h-.5V57.22h0l13.6,25.38h17.73Z"/><path class="cls-1" d="M444,73.32c0,5.76-3.66,9.79-10.17,9.79s-10.08-4-10.08-9.79V53.66h4V73c0,4.49,2,6.72,6.09,6.72S440,77.52,440,73V53.66h4Z"/><path class="cls-1" d="M464.76,67.31A6.44,6.44,0,0,0,470.18,61c0-5-4.2-7.31-11.34-7.31H452V82.6h8c6.72,0,11.46-2.1,11.46-8.23C471.44,69.46,468.12,67.9,464.76,67.31ZM460,79.41h-4V69h0V65.93h0V56.81h3.28c4.29,0,6.85.88,6.85,4.45,0,3.07-2.52,4.66-5.75,4.67V69h.37c3.49,0,6.51,1.31,6.51,5.38S464.18,79.41,460,79.41Z"/></g></g></svg>